<svg width="51" height="35" viewBox="0 0 51 35" fill="none" xmlns="http://www.w3.org/2000/svg">
<path d="M50.4754 15.832C50.48 14.6563 50.175 13.5003 49.5912 12.4809C49.0073 11.4616 48.1654 10.6152 47.1506 10.0273C47.1756 9.73875 47.1756 9.44853 47.1506 9.15996C47.1506 7.8328 46.6252 6.56001 45.6899 5.62157C44.7546 4.68313 43.4861 4.15592 42.1634 4.15592H41.8642C41.5874 3.38582 41.1265 2.69563 40.5219 2.14587C39.9173 1.59612 39.1876 1.20359 38.3966 1.00271C37.6057 0.801834 36.7777 0.798739 35.9852 0.993699C35.1928 1.18866 34.4601 1.57572 33.8515 2.12094C33.2429 1.57572 32.5102 1.18866 31.7178 0.993699C30.9253 0.798739 30.0973 0.801834 29.3064 1.00271C28.5154 1.20359 27.7857 1.59612 27.1811 2.14587C26.5765 2.69563 26.1156 3.38582 25.8388 4.15592H25.5395C24.2169 4.15592 22.9484 4.68313 22.0131 5.62157C21.0778 6.56001 20.5524 7.8328 20.5524 9.15996C20.5274 9.44853 20.5274 9.73875 20.5524 10.0273C19.6089 10.5624 18.8101 11.3208 18.2254 12.2364C17.6408 13.152 17.288 14.1971 17.1979 15.2808C17.1078 16.3645 17.283 17.4538 17.7083 18.454C18.1336 19.4542 18.796 20.3349 19.6381 21.0195C19.0933 22.0391 18.822 23.1833 18.851 24.3399C18.88 25.4964 19.2082 26.6255 19.8033 27.6164C20.3985 28.6072 21.2403 29.4257 22.2459 29.9916C23.2516 30.5575 24.3866 30.8513 25.5395 30.8441H25.8388C26.1156 31.6142 26.5765 32.3044 27.1811 32.8542C27.7857 33.4039 28.5154 33.7965 29.3064 33.9973C30.0973 34.1982 30.9253 34.2013 31.7178 34.0063C32.5102 33.8114 33.2429 33.4243 33.8515 32.8791C34.4601 33.4243 35.1928 33.8114 35.9852 34.0063C36.7777 34.2013 37.6057 34.1982 38.3966 33.9973C39.1876 33.7965 39.9173 33.4039 40.5219 32.8542C41.1265 32.3044 41.5874 31.6142 41.8642 30.8441H42.1634C43.3094 30.8369 44.434 30.5326 45.4282 29.9608C46.4224 29.389 47.2525 28.5691 47.8379 27.5806C48.4233 26.5921 48.7442 25.4686 48.7694 24.319C48.7946 23.1695 48.5233 22.0329 47.9818 21.0195C48.7572 20.3966 49.3837 19.6073 49.8152 18.7096C50.2467 17.8119 50.4723 16.8287 50.4754 15.832ZM32.1891 11.7454C31.827 11.5376 31.449 11.3591 31.0587 11.2116C30.6398 11.07 30.1821 11.1012 29.7862 11.2983C29.3902 11.4954 29.0885 11.8422 28.9474 12.2625C28.8064 12.6827 28.8374 13.142 29.0339 13.5393C29.2303 13.9366 29.5759 14.2393 29.9948 14.3808C30.6347 14.613 31.1882 15.0365 31.5806 15.5943C31.973 16.1521 32.1854 16.8173 32.1891 17.5V20.0854C31.827 19.8777 31.449 19.6992 31.0587 19.5517C30.6398 19.4101 30.1821 19.4413 29.7862 19.6384C29.3902 19.8354 29.0885 20.1823 28.9474 20.6025C28.8064 21.0228 28.8374 21.4821 29.0339 21.8794C29.2303 22.2766 29.5759 22.5793 29.9948 22.7209C30.6347 22.953 31.1882 23.3766 31.5806 23.9344C31.973 24.4922 32.1854 25.1573 32.1891 25.8401V29.1761C32.1891 29.6185 32.014 30.0428 31.7022 30.3556C31.3904 30.6684 30.9676 30.8441 30.5267 30.8441C30.2051 30.842 29.891 30.7463 29.6225 30.5687C29.354 30.3911 29.1426 30.1391 29.0139 29.8433C29.2927 29.6792 29.5594 29.4952 29.8119 29.2929C29.98 29.1527 30.1189 28.9806 30.2208 28.7866C30.3226 28.5925 30.3853 28.3802 30.4054 28.1618C30.4255 27.9434 30.4025 27.7232 30.3377 27.5137C30.273 27.3043 30.1677 27.1096 30.028 26.941C29.8883 26.7723 29.7168 26.6329 29.5234 26.5307C29.33 26.4286 29.1184 26.3656 28.9008 26.3455C28.6831 26.3253 28.4636 26.3484 28.2549 26.4134C28.0461 26.4783 27.8521 26.5839 27.684 26.7241C27.0838 27.2312 26.3242 27.5089 25.5395 27.5081C24.6578 27.5081 23.8121 27.1566 23.1886 26.531C22.5651 25.9054 22.2148 25.0568 22.2148 24.1721C22.2227 23.5442 22.4071 22.9314 22.7467 22.404C23.1198 22.4711 23.4981 22.5046 23.8772 22.5041C24.3181 22.5041 24.7409 22.3283 25.0526 22.0155C25.3644 21.7027 25.5395 21.2784 25.5395 20.836C25.5395 20.3937 25.3644 19.9694 25.0526 19.6566C24.7409 19.3438 24.3181 19.168 23.8772 19.168C23.4845 19.1703 23.095 19.0967 22.7301 18.9512C22.1322 18.7348 21.6087 18.351 21.2215 17.8453C20.8343 17.3396 20.5997 16.7331 20.5454 16.0977C20.4912 15.4623 20.6196 14.8246 20.9155 14.2601C21.2114 13.6957 21.6623 13.2282 22.2148 12.913C22.451 13.1311 22.707 13.3265 22.9795 13.4968C23.363 13.718 23.8185 13.7772 24.2456 13.6615C24.6727 13.5457 25.0365 13.2645 25.2569 12.8796C25.4774 12.4948 25.5364 12.0378 25.4211 11.6092C25.3057 11.1807 25.0254 10.8156 24.6419 10.5944C24.4078 10.4649 24.2127 10.2748 24.0766 10.044C23.923 9.7762 23.8534 9.46807 23.8772 9.15996C23.8772 8.71757 24.0523 8.29331 24.3641 7.98049C24.6758 7.66768 25.0987 7.49194 25.5395 7.49194C25.6554 7.47573 25.7728 7.47573 25.8887 7.49194C25.9767 7.75994 26.0822 8.02183 26.2045 8.27591C26.3131 8.46704 26.4583 8.63473 26.6318 8.76931C26.8053 8.90389 27.0035 9.00271 27.2152 9.06008C27.4269 9.11744 27.6478 9.13222 27.8652 9.10356C28.0826 9.0749 28.2922 9.00336 28.482 8.89308C28.8505 8.67057 29.1188 8.3134 29.2304 7.89659C29.342 7.47979 29.2883 7.03581 29.0804 6.65794C28.941 6.40207 28.8667 6.11556 28.8643 5.82393C28.8643 5.38155 29.0395 4.95728 29.3512 4.64447C29.663 4.33165 30.0858 4.15592 30.5267 4.15592C30.9676 4.15592 31.3904 4.33165 31.7022 4.64447C32.014 4.95728 32.1891 5.38155 32.1891 5.82393V11.7454ZM44.9729 18.9512C44.608 19.0967 44.2185 19.1703 43.8258 19.168C43.3849 19.168 42.9621 19.3438 42.6503 19.6566C42.3386 19.9694 42.1634 20.3937 42.1634 20.836C42.1634 21.2784 42.3386 21.7027 42.6503 22.0155C42.9621 22.3283 43.3849 22.5041 43.8258 22.5041C44.2049 22.5046 44.5832 22.4711 44.9563 22.404C45.2959 22.9314 45.4803 23.5442 45.4882 24.1721C45.4882 25.0568 45.1379 25.9054 44.5144 26.531C43.8909 27.1566 43.0452 27.5081 42.1634 27.5081C41.3788 27.5089 40.6192 27.2312 40.019 26.7241C39.6795 26.441 39.2418 26.3048 38.8022 26.3455C38.3626 26.3861 37.9572 26.6003 37.675 26.941C37.3928 27.2816 37.2571 27.7208 37.2976 28.1618C37.3381 28.6029 37.5516 29.0097 37.8911 29.2929C38.1436 29.4952 38.4103 29.6792 38.6891 29.8433C38.5604 30.1391 38.349 30.3911 38.0805 30.5687C37.812 30.7463 37.4979 30.842 37.1763 30.8441C36.7354 30.8441 36.3126 30.6684 36.0008 30.3556C35.689 30.0428 35.5139 29.6185 35.5139 29.1761V25.8401C35.5176 25.1573 35.73 24.4922 36.1224 23.9344C36.5148 23.3766 37.0683 22.953 37.7082 22.7209C38.1271 22.5793 38.4727 22.2766 38.6691 21.8794C38.8656 21.4821 38.8966 21.0228 38.7555 20.6025C38.6145 20.1823 38.3128 19.8354 37.9168 19.6384C37.5209 19.4413 37.0632 19.4101 36.6443 19.5517C36.254 19.6992 35.876 19.8777 35.5139 20.0854V17.5C35.5176 16.8173 35.73 16.1521 36.1224 15.5943C36.5148 15.0365 37.0683 14.613 37.7082 14.3808C38.1271 14.2393 38.4727 13.9366 38.6691 13.5393C38.8656 13.142 38.8966 12.6827 38.7555 12.2625C38.6145 11.8422 38.3128 11.4954 37.9168 11.2983C37.5209 11.1012 37.0632 11.07 36.6443 11.2116C36.254 11.3591 35.876 11.5376 35.5139 11.7454V5.82393C35.5139 5.38155 35.689 4.95728 36.0008 4.64447C36.3126 4.33165 36.7354 4.15592 37.1763 4.15592C37.6172 4.15592 38.04 4.33165 38.3518 4.64447C38.6635 4.95728 38.8387 5.38155 38.8387 5.82393C38.8363 6.11556 38.762 6.40207 38.6226 6.65794C38.512 6.84732 38.4397 7.05674 38.4099 7.2742C38.3801 7.49166 38.3934 7.71288 38.449 7.92518C38.5046 8.13747 38.6014 8.33667 38.7339 8.51135C38.8664 8.68603 39.0319 8.83275 39.221 8.94312C39.4108 9.0534 39.6204 9.12494 39.8378 9.1536C40.0552 9.18226 40.2761 9.16748 40.4878 9.11012C40.6995 9.05276 40.8977 8.95394 41.0712 8.81935C41.2447 8.68477 41.3899 8.51708 41.4985 8.32595C41.6229 8.05563 41.7285 7.77696 41.8143 7.49194C41.9302 7.47573 42.0476 7.47573 42.1634 7.49194C42.6043 7.49194 43.0272 7.66768 43.3389 7.98049C43.6507 8.29331 43.8258 8.71757 43.8258 9.15996C43.8233 9.48694 43.725 9.80597 43.5432 10.0774C43.4073 10.2938 43.2184 10.4718 42.9946 10.5944C42.6111 10.8156 42.3308 11.1807 42.2154 11.6092C42.1001 12.0378 42.1591 12.4948 42.3796 12.8796C42.6 13.2645 42.9638 13.5457 43.3909 13.6615C43.818 13.7772 44.2735 13.718 44.657 13.4968C44.9555 13.3348 45.2344 13.1389 45.4882 12.913C46.0426 13.2226 46.4972 13.685 46.7981 14.2455C47.0991 14.8059 47.234 15.4411 47.1868 16.076C47.1396 16.7109 46.9123 17.319 46.5318 17.8284C46.1513 18.3379 45.6334 18.7275 45.0394 18.9512H44.9729Z" fill="url(#paint0_linear_26_321)"/>
<path d="M13.8106 0.849731L12.7722 3.76156L9.65696 4.73216V5.88903L12.7722 6.85964L13.8106 9.77146H15.0483L16.0867 6.85964L19.2019 5.88903V4.73216L16.0867 3.76156L15.0483 0.849731L13.8106 0.849731Z" fill="#0BE7FF"/>
<path d="M5.10752 11.2307L6.63516 6.94695H7.87283L9.40047 11.2307L13.9834 12.6586V13.8154L9.40047 15.2433L7.87283 19.527H6.63516L5.10752 15.2433L0.524597 13.8154L0.524597 12.6586L5.10752 11.2307Z" fill="#0BE7FF"/>
<defs>
<linearGradient id="paint0_linear_26_321" x1="33.8252" y1="0.849731" x2="33.8252" y2="34.1503" gradientUnits="userSpaceOnUse">
<stop stop-color="#2865FF"/>
<stop offset="1" stop-color="#183C99"/>
</linearGradient>
</defs>
</svg>
